<svg xmlns="http://www.w3.org/2000/svg" viewBox="0 0 880 170" role="img" aria-labelledby="title desc">
  <title id="title">ZAGGREGATE</title>
  <desc id="desc">ZAGGREGATE project wordmark with seismic line and brick motif</desc>
  <defs>
    <pattern id="brick" width="42" height="26" patternUnits="userSpaceOnUse">
      <rect width="42" height="26" fill="#b34f37"/>
      <path d="M0 0H42M0 26H42M0 13H42M21 0V13M0 13V26M42 13V26" stroke="#f3d7c7" stroke-width="2" opacity=".7"/>
    </pattern>
  </defs>
  <g transform="translate(6 15)">
    <path d="M0 107h38l9-20 14 42 18-66 18 43h30l12-30 18 31h37" fill="none" stroke="#c44e38" stroke-width="6" stroke-linecap="round" stroke-linejoin="round"/>
    <circle cx="211" cy="106" r="11" fill="none" stroke="#c44e38" stroke-width="4"/>
    <circle cx="211" cy="106" r="22" fill="none" stroke="#c44e38" stroke-width="3" opacity=".45"/>
    <circle cx="211" cy="106" r="33" fill="none" stroke="#c44e38" stroke-width="2" opacity=".24"/>
  </g>
  <text x="218" y="108" font-family="Arial, Helvetica, sans-serif" font-size="92" font-weight="900" letter-spacing="-4" fill="#17324d">ZAG</text>
  <text x="413" y="108" font-family="Arial, Helvetica, sans-serif" font-size="92" font-weight="900" letter-spacing="-4" fill="url(#brick)">GREGATE</text>
  <path d="M343 44l-12 17 18 12-15 17 18 12" fill="none" stroke="#f7f3ef" stroke-width="5" stroke-linecap="round"/>
  <text x="220" y="145" font-family="Arial, Helvetica, sans-serif" font-size="18" font-weight="600" letter-spacing="1.4" fill="#5f6b75">HISTORICAL MASONRY BUILDING AGGREGATES IN ZAGREB</text>
</svg>
